General
      Complete name : Lawrence.of.Arabia.1962.HDRip.H264.AAC.5.1ch.Gopo.mp4
      Format : MPEG-4
      Format profile : Base Media
      Codec ID : isom
      File size : 3.51 GiB
      Duration : 3h 27mn
      Overall bit rate : 2 423 Kbps
      Encoded date : UTC 2010-01-07 01:32:40
      Tagged date : UTC 2010-01-07 01:32:40
      Writing application : Yamb 2.1.0.0 [http://yamb.unite-video.com]
   Video #2
      ID : 2
      Format : AVC
      Format/Info : Advanced Video Codec
      Format profile : High@L4.1
      Format settings, CABAC : Yes
      Format settings, ReFrames : 5 frames
      Codec ID : avc1
      Codec ID/Info : Advanced Video Coding
      Duration : 3h 27mn
      Bit rate mode : Variable
      Bit rate : 2 100 Kbps
      Maximum bit rate : 9 780 Kbps
      Width : 1 280 pixels
      Height : 576 pixels
      Display aspect ratio : 2.222
      Frame rate mode : Constant
      Frame rate : 25.000 fps
      Resolution : 24 bits
      Colorimetry : 4:2:0
      Scan type : Progressive
      Bits/(Pixel*Frame) : 0.114
      Stream size : 3.04 GiB (87%)
      Writing library : x264 core 79 r1360 528c100
      Encoding settings : cabac=1 / ref=5 / deblock=1:0:0 / analyse=0x3:0x113 / me=umh / subme=8 / psy=1 / psy_rd=1.0:0.0 / mixed_ref=1 / me_range=16 / chroma_me=1 / trellis=2 / 8x8dct=1 / cqm=0 / deadzone=21,11 / chroma_qp_offset=-2 / threads=3 / nr=0 / decimate=1 / mbaff=0 / constrained_intra=0 / bframes=3 / b_pyramid=0 / b_adapt=2 / b_bias=0 / direct=3 / wpredb=1 / wpredp=2 / keyint=250 / keyint_min=25 / scenecut=40 / rc_lookahead=30 / rc=2pass / mbtree=1 / bitrate=2100 / ratetol=1.0 / qcomp=0.50 / qpmin=10 / qpmax=51 / qpstep=4 / cplxblur=20.0 / qblur=0.5 / vbv_maxrate=24000 / vbv_bufsize=24000 / ip_ratio=1.10 / aq=1:1.00
      Encoded date : UTC 2010-01-05 21:42:48
      Tagged date : UTC 2010-01-07 01:43:27
   Audio #1
      ID : 1
      Format : AAC
      Format/Info : Advanced Audio Codec
      Format version : Version 4
      Format profile : LC
      Format settings, SBR : No
      Codec ID : 40
      Duration : 3h 27mn
      Bit rate mode : Variable
      Bit rate : 319 Kbps
      Maximum bit rate : 400 Kbps
      Channel(s) : 6 channels
      Channel positions : Front: L C R, Rear: L R, LFE
      Sampling rate : 48.0 KHz
      Resolution : 16 bits
      Stream size : 473 MiB (13%)
      Encoded date : UTC 2010-01-07 01:32:40
      Tagged date : UTC 2010-01-07 01:43:27
	Sample : YES
	Subtitle : English,Romanian

PLOT

An inordinately complex man who has been labeled everything from hero, to charlatan, to sadist, Thomas Edward Lawrence blazed his way to glory in the Arabian desert, then sought anonymity as a common soldier under an assumed name. The story opens with the death of Lawrence in a motorcycle accident in London at the age of 47, then flashbacks to recount his adventures: as a young intelligence officer in Cairo in 1916, he is given leave to investigate the progress of the Arab revolt against the Turks in World War I. In the desert, he organizes a guerrilla army and--for two years--leads the Arabs in harassing the Turks with desert raids, train-wrecking and camel attacks. Eventually, he leads his army northward and helps a British General destroy the power of the Ottoman Empire.
Director: David Lean
CASTING 
     
      Peter O'Toole	... 	T.E. Lawrence
	Alec Guinness	... 	Prince Feisal
	Anthony Quinn	... 	Auda Abu Tayi
	Jack Hawkins	... 	General Lord Edmund Allenby
	Omar Sharif	... 	Sherif Ali
	José Ferrer	... 	Turkish Bey (as Jose Ferrer)
	Anthony Quayle	... 	Colonel Brighton
	Claude Rains	... 	Mr. Dryden
	Arthur Kennedy	... 	Jackson Bentley
	Donald Wolfit	... 	General Murray
	I.S. Johar	... 	Gasim
	Gamil Ratib	... 	Majid
	Michel Ray	... 	Farraj
	John Dimech	... 	Daud
	Zia Mohyeddin	... 	Tafas

SOURCE: Lawrence.of.Arabia.1962.HDTV.720p.x264.AC3-5.1-iLL.mkv

Notes: For best performance I suggest you to use KMPlayer(find it with google) for playback
I haven't tested the movies on a PS3 or Xbox or other devices than PC because I don't own one of them but feel free to test them if you have the oportunity.
